<svg width="1069" height="648" viewBox="0 0 1069 648" fill="none" xmlns="http://www.w3.org/2000/svg">
<g filter="url(#filter0_d)">
<rect x="21" y="171.923" width="425.01" height="117.308" rx="6" fill="white"/>
</g>
<g filter="url(#filter1_d)">
<path d="M24.3138 30C24.3138 24.4771 28.791 20 34.3138 20H1035C1040.52 20 1045 24.4772 1045 30V620H24.3138V30Z" fill="white"/>
</g>
<mask id="mask0" mask-type="alpha" maskUnits="userSpaceOnUse" x="24" y="20" width="1021" height="600">
<path d="M24.3138 30C24.3138 24.4771 28.791 20 34.3138 20H1035C1040.52 20 1045 24.4772 1045 30V620H24.3138V30Z" fill="white"/>
</mask>
<g mask="url(#mask0)">
<path d="M24.3138 20H1045V63.2692H24.3138V20Z" fill="#F3F7FB"/>
</g>
<defs>
<filter id="filter0_d" x="7" y="161.923" width="453.01" height="145.308" filterUnits="userSpaceOnUse" color-interpolation-filters="sRGB">
<feFlood flood-opacity="0" result="BackgroundImageFix"/>
<feColorMatrix in="SourceAlpha" type="matrix" values="0 0 0 0 0 0 0 0 0 0 0 0 0 0 0 0 0 0 127 0"/>
<feOffset dy="4"/>
<feGaussianBlur stdDeviation="7"/>
<feColorMatrix type="matrix" values="0 0 0 0 0 0 0 0 0 0 0 0 0 0 0 0 0 0 0.05 0"/>
<feBlend mode="normal" in2="BackgroundImageFix" result="effect1_dropShadow"/>
<feBlend mode="normal" in="SourceGraphic" in2="effect1_dropShadow" result="shape"/>
</filter>
<filter id="filter1_d" x="0.313843" y="0" width="1068.69" height="648" filterUnits="userSpaceOnUse" color-interpolation-filters="sRGB">
<feFlood flood-opacity="0" result="BackgroundImageFix"/>
<feColorMatrix in="SourceAlpha" type="matrix" values="0 0 0 0 0 0 0 0 0 0 0 0 0 0 0 0 0 0 127 0"/>
<feOffset dy="4"/>
<feGaussianBlur stdDeviation="12"/>
<feColorMatrix type="matrix" values="0 0 0 0 0 0 0 0 0 0 0 0 0 0 0 0 0 0 0.1 0"/>
<feBlend mode="normal" in2="BackgroundImageFix" result="effect1_dropShadow"/>
<feBlend mode="normal" in="SourceGraphic" in2="effect1_dropShadow" result="shape"/>
</filter>
</defs>
</svg>
