<svg width="1154" height="188" viewBox="0 0 1154 188" fill="none" xmlns="http://www.w3.org/2000/svg">
<g clip-path="url(#clip0)">
<path d="M479.206 157.112L475.125 165.387L465.994 166.719C464.356 166.956 463.7 168.975 464.888 170.131L471.494 176.569L469.931 185.662C469.65 187.306 471.381 188.537 472.831 187.769L481 183.475L489.169 187.769C490.619 188.531 492.35 187.306 492.069 185.662L490.506 176.569L497.113 170.131C498.3 168.975 497.644 166.956 496.006 166.719L486.875 165.387L482.794 157.112C482.063 155.637 479.944 155.619 479.206 157.112Z" fill="#FFC736"/>
</g>
<g clip-path="url(#clip1)">
<path d="M527.206 157.112L523.125 165.387L513.994 166.719C512.356 166.956 511.7 168.975 512.888 170.131L519.494 176.569L517.931 185.662C517.65 187.306 519.381 188.537 520.831 187.769L529 183.475L537.169 187.769C538.619 188.531 540.35 187.306 540.069 185.662L538.506 176.569L545.113 170.131C546.3 168.975 545.644 166.956 544.006 166.719L534.875 165.387L530.794 157.112C530.063 155.637 527.944 155.619 527.206 157.112Z" fill="#FFC736"/>
</g>
<g clip-path="url(#clip2)">
<path d="M575.206 157.112L571.125 165.387L561.994 166.719C560.356 166.956 559.7 168.975 560.888 170.131L567.494 176.569L565.931 185.662C565.65 187.306 567.381 188.537 568.831 187.769L577 183.475L585.169 187.769C586.619 188.531 588.35 187.306 588.069 185.662L586.506 176.569L593.113 170.131C594.3 168.975 593.644 166.956 592.006 166.719L582.875 165.387L578.794 157.112C578.063 155.637 575.944 155.619 575.206 157.112Z" fill="#FFC736"/>
</g>
<g clip-path="url(#clip3)">
<path d="M623.206 157.112L619.125 165.387L609.994 166.719C608.356 166.956 607.7 168.975 608.888 170.131L615.494 176.569L613.931 185.662C613.65 187.306 615.381 188.537 616.831 187.769L625 183.475L633.169 187.769C634.619 188.531 636.35 187.306 636.069 185.662L634.506 176.569L641.113 170.131C642.3 168.975 641.644 166.956 640.006 166.719L630.875 165.387L626.794 157.112C626.063 155.637 623.944 155.619 623.206 157.112Z" fill="#FFC736"/>
</g>
<g clip-path="url(#clip4)">
<path d="M671.206 157.112L667.125 165.387L657.994 166.719C656.356 166.956 655.7 168.975 656.888 170.131L663.494 176.569L661.931 185.662C661.65 187.306 663.381 188.537 664.831 187.769L673 183.475L681.169 187.769C682.619 188.531 684.35 187.306 684.069 185.662L682.506 176.569L689.113 170.131C690.3 168.975 689.644 166.956 688.006 166.719L678.875 165.387L674.794 157.112C674.063 155.637 671.944 155.619 671.206 157.112Z" fill="#FFC736"/>
<mask id="mask0" mask-type="alpha" maskUnits="userSpaceOnUse" x="656" y="155" width="34" height="34">
<path d="M671.206 157.112L667.125 165.387L657.994 166.719C656.356 166.956 655.7 168.975 656.888 170.131L663.494 176.569L661.931 185.662C661.65 187.306 663.381 188.537 664.831 187.769L673 183.475L681.169 187.769C682.619 188.531 684.35 187.306 684.069 185.662L682.506 176.569L689.113 170.131C690.3 168.975 689.644 166.956 688.006 166.719L678.875 165.387L674.794 157.112C674.063 155.637 671.944 155.619 671.206 157.112Z" fill="#FFC736"/>
</mask>
<g mask="url(#mask0)">
<rect x="673" y="156" width="35" height="43" fill="white" fill-opacity="0.4"/>
</g>
</g>
<circle cx="572" cy="60" r="55" stroke="#367CFF" stroke-opacity="0.1" stroke-width="10"/>
<mask id="mask1" mask-type="alpha" maskUnits="userSpaceOnUse" x="512" y="0" width="120" height="120">
<circle cx="572" cy="60" r="55" stroke="#367CFF" stroke-width="10"/>
</mask>
<g mask="url(#mask1)">
<rect x="488" y="45" width="180" height="83" fill="#FFC736"/>
<rect width="267.837" height="97.715" transform="matrix(0.707107 -0.707106 0.707107 0.707106 474.61 110.39)" fill="#FFC736"/>
<rect x="628.5" y="190.648" width="267.837" height="97.715" transform="rotate(-120 628.5 190.648)" fill="#FFC736"/>
</g>
<path d="M555.365 63.5107C553.697 65.2744 551.749 66.1562 549.521 66.1562C546.896 66.1562 544.804 65.2402 543.245 63.4082C541.687 61.5625 540.907 59.1426 540.907 56.1484C540.907 54.1797 541.304 52.3955 542.097 50.7959C542.89 49.1963 544.018 47.9521 545.48 47.0635C546.943 46.1748 548.639 45.7305 550.566 45.7305C553.574 45.7305 555.96 46.8516 557.724 49.0938C559.487 51.3359 560.369 54.3369 560.369 58.0967V59.4912C560.369 64.8779 559.152 68.9863 556.719 71.8164C554.285 74.6465 550.655 76.082 545.829 76.123H545.234V72.001H545.952C548.892 71.96 551.147 71.2559 552.72 69.8887C554.292 68.5078 555.174 66.3818 555.365 63.5107ZM550.566 62.2598C551.564 62.2598 552.501 61.9727 553.376 61.3984C554.251 60.8242 554.928 60.0312 555.406 59.0195V57.0713C555.406 54.8701 554.955 53.0996 554.053 51.7598C553.15 50.4199 551.981 49.75 550.546 49.75C549.11 49.75 547.962 50.3447 547.101 51.5342C546.253 52.71 545.829 54.2002 545.829 56.0049C545.829 57.8779 546.26 59.3887 547.121 60.5371C547.982 61.6855 549.131 62.2598 550.566 62.2598ZM562.659 61.1934L564.28 46.1406H580.317V50.4473H568.422L567.602 57.584C568.983 56.791 570.541 56.3945 572.278 56.3945C575.121 56.3945 577.329 57.3037 578.902 59.1221C580.488 60.9404 581.281 63.3877 581.281 66.4639C581.281 69.499 580.406 71.9189 578.656 73.7236C576.906 75.5146 574.506 76.4102 571.457 76.4102C568.723 76.4102 566.453 75.6377 564.649 74.0928C562.858 72.5342 561.887 70.4834 561.737 67.9404H566.556C566.747 69.3896 567.267 70.5039 568.115 71.2832C568.962 72.0488 570.07 72.4316 571.437 72.4316C572.968 72.4316 574.157 71.8848 575.005 70.791C575.866 69.6973 576.297 68.207 576.297 66.3203C576.297 64.502 575.825 63.0664 574.882 62.0137C573.939 60.9473 572.64 60.4141 570.986 60.4141C570.083 60.4141 569.318 60.5371 568.689 60.7832C568.06 61.0156 567.376 61.4805 566.638 62.1777L562.659 61.1934ZM581.212 51.8828C581.212 50.0781 581.794 48.6016 582.956 47.4531C584.118 46.291 585.642 45.71 587.529 45.71C589.443 45.71 590.974 46.291 592.123 47.4531C593.285 48.6016 593.866 50.1123 593.866 51.9854V53.4619C593.866 55.2529 593.285 56.7227 592.123 57.8711C590.974 59.0195 589.457 59.5938 587.57 59.5938C585.724 59.5938 584.2 59.0332 582.997 57.9121C581.807 56.7773 581.212 55.2529 581.212 53.3389V51.8828ZM584.699 53.4619C584.699 54.4053 584.959 55.1709 585.478 55.7588C586.011 56.333 586.709 56.6201 587.57 56.6201C588.418 56.6201 589.101 56.333 589.621 55.7588C590.14 55.1709 590.4 54.3779 590.4 53.3799V51.8828C590.4 50.9395 590.133 50.1738 589.6 49.5859C589.081 48.998 588.39 48.7041 587.529 48.7041C586.668 48.7041 585.977 49.0049 585.458 49.6064C584.952 50.1943 584.699 50.9736 584.699 51.9443V53.4619ZM595.568 68.6787C595.568 66.8467 596.163 65.3633 597.352 64.2285C598.542 63.0938 600.059 62.5264 601.905 62.5264C603.764 62.5264 605.282 63.0938 606.458 64.2285C607.647 65.3633 608.242 66.8945 608.242 68.8223V70.2783C608.242 72.0557 607.668 73.5254 606.519 74.6875C605.384 75.8359 603.86 76.4102 601.946 76.4102C600.032 76.4102 598.487 75.8428 597.311 74.708C596.149 73.5596 595.568 72.0488 595.568 70.1758V68.6787ZM599.054 70.2783C599.054 71.208 599.321 71.9736 599.854 72.5752C600.401 73.1631 601.098 73.457 601.946 73.457C602.821 73.457 603.504 73.1768 603.997 72.6162C604.502 72.042 604.755 71.2422 604.755 70.2168V68.6787C604.755 67.7217 604.489 66.9561 603.956 66.3818C603.422 65.8076 602.739 65.5205 601.905 65.5205C601.057 65.5205 600.367 65.8076 599.834 66.3818C599.314 66.9561 599.054 67.749 599.054 68.7607V70.2783ZM588.595 73.7646L586.032 72.2881L600.613 48.9502L603.176 50.4268L588.595 73.7646Z" fill="#FFC736"/>
<rect opacity="0.1" y="71" width="481" height="3" fill="#367CFF"/>
<rect opacity="0.1" x="673" y="71" width="481" height="3" fill="#367CFF"/>
<defs>
<clipPath id="clip0">
<rect width="36" height="32" fill="white" transform="translate(463 156)"/>
</clipPath>
<clipPath id="clip1">
<rect width="36" height="32" fill="white" transform="translate(511 156)"/>
</clipPath>
<clipPath id="clip2">
<rect width="36" height="32" fill="white" transform="translate(559 156)"/>
</clipPath>
<clipPath id="clip3">
<rect width="36" height="32" fill="white" transform="translate(607 156)"/>
</clipPath>
<clipPath id="clip4">
<rect width="36" height="32" fill="white" transform="translate(655 156)"/>
</clipPath>
</defs>
</svg>
