<svg width="172" height="46" viewBox="0 0 172 46" fill="none" xmlns="http://www.w3.org/2000/svg">
  <path d="M7.87912 39.9037C6.82231 39.9415 5.76901 39.7621 4.7847 39.3765C3.80038 38.9909 2.90611 38.4074 2.15748 37.6624C0.0302517 35.5404 0 33.1496 0 29.0853C0 25.021 0.0412519 22.6302 2.16298 20.5041C2.91132 19.7605 3.80485 19.1782 4.78815 18.7933C5.77144 18.4085 6.82352 18.2293 7.87912 18.2669C9.79661 18.178 11.6754 18.8251 13.1295 20.0751C14.5836 21.3251 15.5026 23.0832 15.6977 24.9881H11.4543C11.3379 24.1349 10.9094 23.3547 10.2512 22.7977C9.59302 22.2406 8.75158 21.946 7.88875 21.9704C7.39054 21.9508 6.89402 22.0395 6.43362 22.2304C5.97322 22.4213 5.55995 22.7098 5.2225 23.076C4.44283 23.9717 4.1747 25.0196 4.1747 29.0826C4.1747 33.1455 4.44971 34.1934 5.2225 35.0891C5.55995 35.4553 5.97322 35.7438 6.43362 35.9347C6.89402 36.1256 7.39054 36.2143 7.88875 36.1947C8.75501 36.2206 9.60046 35.9271 10.2635 35.3704C10.9266 34.8138 11.3608 34.0329 11.4832 33.177H15.7032C15.5049 35.0821 14.5844 36.8396 13.13 38.09C11.6756 39.3404 9.79724 39.9892 7.87912 39.9037Z" fill="#203476"></path>
  <path d="M27.0019 39.7255V38.3812C26.5163 38.9017 25.9193 39.3063 25.2554 39.5649C24.5914 39.8235 23.8776 39.9295 23.1669 39.875C22.4439 39.9251 21.7183 39.8295 21.0332 39.5939C20.348 39.3582 19.7175 38.9873 19.1792 38.5033C18.313 37.5477 17.8513 36.2947 17.8908 35.0069C17.8908 32.5283 19.5986 30.4941 23.2838 30.4941H26.9084V29.7163C26.9084 28.0127 26.0696 27.2665 24.0029 27.2665C23.4309 27.2246 22.8573 27.3255 22.3342 27.5602C21.811 27.7949 21.3548 28.156 21.0067 28.6108L18.5494 26.1897C19.2368 25.3998 20.1046 24.7864 21.0797 24.4013C22.0547 24.0162 23.1082 23.8708 24.1514 23.9772C28.5516 23.9772 30.8026 25.8304 30.8026 29.4763V39.7269L27.0019 39.7255ZM26.9112 33.151H23.9452C22.3872 33.151 21.6378 33.7779 21.6378 34.9438C21.6378 36.0206 22.3872 36.7078 24.0057 36.7078C24.4213 36.7525 24.8416 36.7091 25.2392 36.5805C25.6369 36.4519 26.0028 36.241 26.313 35.9616C26.5526 35.6973 26.7305 35.3834 26.834 35.0423C26.9374 34.7012 26.9638 34.3416 26.9112 33.9891V33.151Z" fill="#203476"></path>
  <path d="M39.4134 39.7242C38.8115 39.7694 38.2069 39.686 37.64 39.4795C37.0731 39.2729 36.5569 38.9481 36.126 38.5266C35.695 38.1052 35.3592 37.5968 35.1409 37.0355C34.9227 36.4741 34.8271 35.8728 34.8605 35.2717V18.4453H38.7561V35.0317C38.7561 35.9589 39.1452 36.4363 40.1311 36.4363H41.6286V39.7283L39.4134 39.7242Z" fill="#203476"></path>
  <path d="M49.1446 39.7242C48.5428 39.7694 47.9381 39.686 47.3711 39.4795C46.8042 39.2729 46.2879 38.9481 45.8568 38.5267C45.4257 38.1052 45.0898 37.5969 44.8714 37.0356C44.653 36.4742 44.5572 35.8729 44.5904 35.2717V18.4453H48.486V35.0317C48.486 35.9589 48.8751 36.4363 49.861 36.4363H51.3599V39.7283L49.1446 39.7242Z" fill="#203476"></path>
  <path d="M60.0231 39.7239H56.9677L51.2158 24.1567H55.3204L58.4954 33.7791L61.6416 24.1567H65.7434L60.0231 39.7239Z" fill="#203476"></path>
  <path d="M78.8409 37.9914C78.2074 38.6263 77.4492 39.1238 76.614 39.4529C75.7787 39.7819 74.8844 39.9353 73.9869 39.9035C73.0939 39.9358 72.2039 39.7826 71.3735 39.4534C70.5431 39.1242 69.7904 38.6263 69.1632 37.9914C67.7551 36.4976 67.3962 34.735 67.3962 31.9244C67.3962 29.1139 67.7565 27.3814 69.1632 25.889C70.4733 24.6602 72.2038 23.9761 74.002 23.9761C75.8003 23.9761 77.5308 24.6602 78.8409 25.889C80.249 27.3842 80.6092 29.1166 80.6092 31.9244C80.6092 34.7323 80.2792 36.5251 78.8409 37.9914ZM75.8157 28.1605C75.5741 27.9279 75.2874 27.7471 74.9731 27.6291C74.6588 27.5112 74.3237 27.4586 73.9883 27.4747C73.6577 27.4613 73.3279 27.5152 73.0189 27.6332C72.71 27.7511 72.4283 27.9305 72.1911 28.1605C71.6005 29.3336 71.2929 30.6282 71.2929 31.9409C71.2929 33.2536 71.6005 34.5482 72.1911 35.7212C72.4284 35.9511 72.7101 36.1304 73.0191 36.2483C73.328 36.3662 73.6577 36.4202 73.9883 36.4071C74.3236 36.4229 74.6587 36.3702 74.973 36.2523C75.2872 36.1344 75.574 35.9537 75.8157 35.7212C76.4064 34.5482 76.7141 33.2536 76.7141 31.9409C76.7141 30.6282 76.4064 29.3336 75.8157 28.1605Z" fill="#203476"></path>
  <path d="M84.2668 21.4943V18.3257H88.2545V21.4943H84.2668ZM84.326 39.7239V24.6011H88.2202V39.7239H84.326Z" fill="#203476"></path>
  <path d="M104.01 38.498C103.505 38.9693 102.912 39.3361 102.264 39.5772C101.616 39.8183 100.927 39.9289 100.236 39.9026C99.5285 39.9526 98.8195 39.8383 98.1643 39.5686C97.5091 39.299 96.9255 38.8813 96.4596 38.3484V45.4318H92.5654V24.1529H96.3414V25.6179C96.8167 25.0595 97.4165 24.6198 98.0927 24.334C98.7689 24.0482 99.5027 23.9242 100.236 23.9719C100.927 23.9458 101.616 24.0565 102.264 24.2976C102.911 24.5387 103.505 24.9053 104.01 25.3765C105.508 26.9004 105.627 29.3214 105.627 31.9221C105.627 34.5228 105.508 36.974 104.01 38.498ZM99.097 27.471C96.7594 27.471 96.4596 29.412 96.4596 31.9235C96.4596 34.4351 96.7594 36.4062 99.097 36.4062C101.435 36.4062 101.733 34.4337 101.733 31.9235C101.733 29.4133 101.433 27.471 99.097 27.471Z" fill="#203476"></path>
  <path d="M108.802 39.724V35.3003H113.265V39.724H108.802Z" fill="#203476"></path>
  <path d="M126.54 39.724V30.3102C126.573 29.9506 126.531 29.5881 126.416 29.2458C126.301 28.9034 126.115 28.5888 125.871 28.322C125.627 28.0552 125.331 27.8421 124.999 27.6963C124.668 27.5505 124.31 27.4752 123.948 27.4752C123.586 27.4752 123.228 27.5505 122.897 27.6963C122.566 27.8421 122.269 28.0552 122.025 28.322C121.781 28.5888 121.596 28.9034 121.48 29.2458C121.365 29.5881 121.323 29.9506 121.356 30.3102V39.724H117.462V24.1527H121.267V25.5875C121.772 25.0688 122.378 24.6581 123.047 24.3805C123.717 24.103 124.436 23.9643 125.161 23.973C125.836 23.9453 126.51 24.0523 127.142 24.2879C127.775 24.5234 128.354 24.8827 128.846 25.3447C129.407 25.9295 129.838 26.6254 130.112 27.3873C130.385 28.1492 130.495 28.96 130.434 29.767V39.7186L126.54 39.724Z" fill="#203476"></path>
  <path d="M139.005 39.7237C138.403 39.7689 137.799 39.6855 137.232 39.479C136.665 39.2725 136.149 38.9476 135.717 38.5262C135.286 38.1047 134.95 37.5964 134.732 37.0351C134.514 36.4738 134.418 35.8724 134.451 35.2712V18.4448H138.345V35.0312C138.345 35.9584 138.734 36.4358 139.72 36.4358H141.219V39.7278L139.005 39.7237Z" fill="#203476"></path>
  <path d="M163.575 2.23917e-05C162.043 0.00086645 160.548 0.475353 159.298 1.35819C158.047 2.24102 157.101 3.48881 156.591 4.92984H143.803V9.85966H148.753V19.7193H153.703V9.85966H156.606C157.06 11.1381 157.857 12.2675 158.911 13.1243C159.964 13.9811 161.234 14.5322 162.581 14.7174C163.928 14.9026 165.299 14.7148 166.546 14.1744C167.793 13.6341 168.867 12.762 169.65 11.6537C170.434 10.5453 170.897 9.24341 170.988 7.89035C171.079 6.53729 170.796 5.18522 170.169 3.98208C169.541 2.77893 168.594 1.77106 167.431 1.06873C166.268 0.366405 164.934 -0.00331468 163.575 2.23917e-05ZM163.575 9.85966C164.231 9.85981 164.86 9.60031 165.324 9.13815L167.074 10.8802C166.383 11.5696 165.503 12.039 164.544 12.2292C163.585 12.4194 162.592 12.3217 161.689 11.9486C160.786 11.5754 160.014 10.9435 159.471 10.1329C158.928 9.32217 158.638 8.36906 158.638 7.39406C158.638 6.41906 158.928 5.46596 159.471 4.65527C160.014 3.84458 160.786 3.21271 161.689 2.83956C162.592 2.46642 163.585 2.36876 164.544 2.55893C165.503 2.74909 166.383 3.21855 167.074 3.90794L165.325 5.65271C165.038 5.3637 164.684 5.14995 164.294 5.03047C163.904 4.91099 163.491 4.88949 163.09 4.96788C162.69 5.04626 162.316 5.22211 162 5.47977C161.684 5.73743 161.437 6.06893 161.281 6.44477C161.125 6.82062 161.064 7.22916 161.104 7.63407C161.144 8.03897 161.284 8.42768 161.511 8.76564C161.739 9.10359 162.046 9.3803 162.406 9.57117C162.766 9.76204 163.168 9.86114 163.576 9.85966H163.575Z" fill="#367CFF"></path>
  </svg>