<svg width="1967" height="500" viewBox="0 0 1967 500" fill="none" xmlns="http://www.w3.org/2000/svg">
<path d="M642.602 262.008C642.602 228.392 647.186 205.472 656.736 192.866C665.904 180.642 682.33 174.148 705.632 174.148C718.62 174.148 731.226 175.294 743.068 176.822C748.798 178.35 753.382 178.732 756.438 178.732C760.258 178.732 763.314 177.204 764.842 173.384C769.044 162.306 771.336 151.228 771.336 139.768C771.336 134.42 767.898 130.6 761.404 129.072C746.888 125.252 725.496 123.342 696.846 123.342C653.298 123.342 622.356 134.802 604.784 156.958C587.212 179.114 578.426 216.168 578.426 267.356C578.426 317.398 587.212 352.542 605.548 372.788C623.502 393.034 650.242 402.966 686.15 402.966C719.766 402.966 746.888 399.146 768.28 391.506C774.392 389.214 777.448 385.776 777.448 380.428C777.448 375.844 774.774 365.912 770.19 349.868C769.044 346.43 766.37 344.52 762.55 344.52C759.494 344.52 755.292 345.284 749.944 346.812C734.282 350.632 719.002 352.16 703.722 352.16C681.566 352.16 665.522 345.666 656.354 332.678C647.186 319.69 642.602 296.006 642.602 262.008Z" fill="#1E3B78"/>
<path d="M967.057 364.384V268.12C967.057 243.29 962.091 226.1 952.541 216.168C942.227 205.854 919.307 200.506 884.163 200.506C857.423 200.506 835.649 203.562 818.077 208.91C811.583 211.202 808.527 215.786 808.527 221.898C808.527 228.392 809.673 237.178 812.347 247.874C813.875 253.986 817.313 256.66 821.897 256.66C824.571 256.66 830.683 255.896 839.851 254.368C852.075 252.458 863.917 251.312 876.141 251.312C892.949 251.312 902.881 254.368 905.173 260.48C905.937 263.154 906.701 268.12 906.701 274.996V281.108C896.769 280.344 886.455 279.962 876.141 279.962C846.727 279.962 826.099 284.164 814.257 292.568C799.741 302.5 792.865 318.162 792.865 340.318C792.865 359.8 798.213 375.08 808.909 386.158C819.605 397.618 839.087 402.966 867.737 402.966C880.343 402.966 894.859 402.202 910.903 399.91C926.947 398 939.171 395.708 947.575 393.034C952.923 391.506 957.889 388.45 962.091 384.248C965.147 380.428 967.057 373.552 967.057 364.384ZM906.701 320.072V335.734C906.701 342.228 906.319 346.43 905.937 348.722C905.173 351.778 903.263 353.688 900.971 354.452C895.623 357.508 887.219 358.654 874.995 358.654C858.569 358.654 850.547 352.16 850.547 338.79C850.547 331.914 852.457 326.948 856.659 323.892C861.243 320.836 870.411 318.926 884.163 318.926C891.803 318.926 899.443 319.308 906.701 320.072Z" fill="#1E3B78"/>
<path d="M1073.57 318.926V124.106C1073.57 120.286 1072.81 117.23 1071.28 115.32C1069.75 113.41 1067.08 112.264 1063.26 112.264H1023.53C1016.27 112.264 1012.83 116.466 1012.83 124.106V326.948C1012.83 350.25 1015.89 366.676 1022.38 375.844C1027.73 384.248 1035.75 390.742 1046.07 394.562C1056.38 398.382 1071.28 400.292 1091.14 400.292C1095.73 400.292 1099.16 399.528 1101.46 398C1103.75 396.472 1105.28 393.798 1106.04 389.596C1106.8 384.248 1107.57 376.226 1107.57 366.294C1107.57 359.8 1104.51 355.98 1098.4 354.834C1086.18 352.924 1078.92 349.104 1076.63 342.992C1074.33 338.408 1073.57 330.386 1073.57 318.926Z" fill="#1E3B78"/>
<path d="M1194.44 318.926V124.106C1194.44 120.286 1193.67 117.23 1192.14 115.32C1190.62 113.41 1187.94 112.264 1184.12 112.264H1144.39C1137.14 112.264 1133.7 116.466 1133.7 124.106V326.948C1133.7 350.25 1136.75 366.676 1143.25 375.844C1148.6 384.248 1156.62 390.742 1166.93 394.562C1177.25 398.382 1192.14 400.292 1212.01 400.292C1216.59 400.292 1220.03 399.528 1222.32 398C1224.61 396.472 1226.14 393.798 1226.91 389.596C1227.67 384.248 1228.43 376.226 1228.43 366.294C1228.43 359.8 1225.38 355.98 1219.27 354.834C1207.04 352.924 1199.78 349.104 1197.49 342.992C1195.2 338.408 1194.44 330.386 1194.44 318.926Z" fill="#1E3B78"/>
<path d="M1328.47 336.498C1323.89 319.69 1311.66 279.58 1291.8 215.786C1289.51 208.528 1284.92 204.708 1278.43 204.708C1257.8 204.708 1243.29 205.472 1234.88 206.236C1228.77 207 1226.1 210.438 1226.1 216.168C1226.1 219.224 1226.86 223.044 1228.77 227.246L1281.49 370.496C1285.31 381.192 1289.51 388.832 1294.86 393.034C1300.2 397.618 1308.61 399.528 1320.07 399.528H1334.2C1344.9 399.528 1353.3 397.236 1358.65 392.652C1364 388.068 1368.96 380.428 1373.17 369.732L1427.03 226.482C1428.56 222.28 1429.32 218.842 1429.32 215.786C1429.32 210.438 1426.26 207 1420.53 206.236C1411.75 205.472 1398.38 204.708 1380.42 204.708C1373.55 204.708 1368.96 208.528 1366.67 216.168C1345.28 281.108 1332.67 321.218 1328.47 336.498Z" fill="#1E3B78"/>
<path d="M1633.68 300.208C1633.68 279.198 1631.77 262.008 1627.95 248.638C1624.13 235.65 1618.4 225.336 1609.99 218.46C1601.59 211.584 1592.42 206.618 1581.73 204.326C1571.03 202.034 1557.66 200.506 1541.23 200.506C1526.34 200.506 1513.35 202.034 1502.65 204.708C1491.96 207.764 1482.02 212.73 1472.86 219.606C1463.69 226.864 1457.19 237.178 1452.61 250.93C1448.03 264.682 1445.73 281.49 1445.73 301.354C1445.73 340.318 1452.99 367.058 1467.51 381.574C1482.02 396.09 1505.71 402.966 1538.56 402.966C1572.18 402.966 1596.62 395.708 1611.52 381.192C1626.04 366.676 1633.68 339.554 1633.68 300.208ZM1572.94 302.118C1572.94 323.51 1570.27 337.262 1565.68 344.138C1560.72 351.014 1551.93 354.07 1539.32 354.07C1526.72 354.07 1518.31 350.632 1513.73 343.756C1509.15 336.88 1507.24 322.746 1507.24 301.354C1507.24 281.49 1509.53 268.12 1514.49 261.244C1519.46 254.368 1528.25 250.548 1540.47 250.548C1553.46 250.548 1562.24 253.986 1566.45 260.862C1570.65 267.738 1572.94 281.49 1572.94 302.118Z" fill="#1E3B78"/>
<path d="M1733.86 386.54V217.314C1733.86 209.674 1730.42 205.472 1723.55 205.472H1683.82C1676.56 205.472 1673.12 209.674 1673.12 217.696V386.54C1673.12 394.562 1676.56 398.382 1683.44 398.382H1722.78C1730.04 398.382 1733.86 394.562 1733.86 386.54ZM1735.01 147.408C1735.01 135.948 1731.95 127.926 1726.6 122.96C1721.26 118.376 1713.23 115.702 1703.3 115.702C1682.29 115.702 1671.98 126.398 1671.98 147.79C1671.98 169.182 1682.29 179.496 1703.3 179.496C1713.62 179.496 1721.64 177.204 1726.99 172.238C1732.33 167.272 1735.01 158.868 1735.01 147.408Z" fill="#1E3B78"/>
<path d="M1842.42 474.782V398.764C1849.3 401.82 1858.85 402.966 1871.45 402.966C1888.26 402.966 1902.39 401.438 1913.85 398.382C1924.93 395.326 1934.48 389.978 1942.89 382.338C1951.29 374.698 1957.4 363.62 1961.22 349.868C1965.04 336.116 1966.95 318.926 1966.95 297.916C1966.95 260.48 1960.08 234.886 1946.71 221.134C1933.34 207.382 1910.8 200.506 1879.47 200.506C1865.34 200.506 1850.06 202.034 1834.02 204.326C1817.59 206.618 1805.37 209.674 1797.73 212.73C1789.7 216.168 1785.12 219.988 1783.59 224.572C1782.06 227.628 1781.68 232.594 1781.68 239.088V474.782C1781.68 480.13 1782.45 483.568 1784.36 485.096C1785.88 487.006 1788.94 487.77 1792.76 487.77H1828.67C1837.84 487.77 1842.42 483.568 1842.42 474.782ZM1842.42 339.172V266.592C1842.42 262.772 1842.42 260.098 1843.18 258.57C1843.95 256.278 1845.48 254.75 1847.77 253.986C1853.5 250.93 1862.28 249.402 1874.13 249.402C1886.35 249.402 1894.37 252.84 1898.96 259.716C1903.54 266.592 1905.83 279.198 1905.83 296.77C1905.83 319.69 1903.16 334.588 1897.81 341.846C1892.46 349.486 1881.77 352.924 1865.34 352.924C1856.55 352.924 1850.44 352.16 1847 350.25C1843.95 349.104 1842.42 345.284 1842.42 339.172Z" fill="#1E3B78"/>
<path d="M500 250C500 388.071 388.071 500 250 500C111.929 500 0 388.071 0 250C0 111.929 111.929 0 250 0C388.071 0 500 111.929 500 250Z" fill="#2069F3"/>
<path fill-rule="evenodd" clip-rule="evenodd" d="M138.115 377.994C102.496 346.833 80 301.044 80 250C80 156.112 156.112 80 250 80C343.888 80 420 156.112 420 250C420 300.916 397.616 346.604 362.152 377.761L299.941 315.55C320.013 300.501 333 276.517 333 249.5C333 203.937 296.063 167 250.5 167C204.937 167 168 203.937 168 249.5C168 276.389 180.864 300.274 200.774 315.335L138.115 377.994Z" fill="white"/>
</svg>
