<?xml version="1.0" standalone="no"?>
<!DOCTYPE svg PUBLIC "-//W3C//DTD SVG 20010904//EN"
 "http://www.w3.org/TR/2001/REC-SVG-20010904/DTD/svg10.dtd">
<svg version="1.0" xmlns="http://www.w3.org/2000/svg"
 width="226.000000pt" height="56.000000pt" viewBox="0 0 226.000000 56.000000"
 preserveAspectRatio="xMidYMid meet">
<metadata>
Created by potrace 1.15, written by Peter Selinger 2001-2017
</metadata>
<g transform="translate(0.000000,56.000000) scale(0.100000,-0.100000)"
fill="#000000" stroke="none">
<path d="M180 539 c-103 -46 -160 -137 -160 -254 1 -163 112 -275 275 -275
163 0 274 112 275 275 0 117 -57 208 -160 254 -62 28 -168 28 -230 0z m221
-98 c54 -34 79 -80 79 -146 0 -48 -21 -105 -47 -126 -12 -10 -21 -6 -50 24
-30 30 -34 38 -24 51 7 8 13 29 13 46 2 63 -75 97 -123 54 -18 -16 -20 -27
-16 -70 5 -49 3 -54 -28 -84 -28 -27 -37 -31 -49 -21 -45 37 -60 144 -29 208
42 90 182 123 274 64z"/>
<path d="M735 431 c-50 -21 -60 -47 -60 -158 l0 -105 33 -29 c71 -63 202 -20
202 66 0 25 -67 20 -75 -5 -9 -28 -51 -37 -75 -15 -16 15 -20 31 -20 91 0 67
2 75 25 90 23 15 27 15 50 0 14 -9 25 -21 25 -26 0 -6 16 -10 35 -10 29 0 35
4 35 21 0 12 -15 36 -34 55 -29 29 -41 34 -77 33 -24 0 -53 -4 -64 -8z"/>
<path d="M1200 292 c0 -169 5 -182 73 -182 34 0 37 2 37 29 0 23 -5 30 -22 33
-22 3 -23 7 -26 136 l-3 132 -29 0 -30 0 0 -148z"/>
<path d="M1342 296 c3 -164 12 -186 75 -186 30 0 33 3 33 30 0 23 -4 30 -20
30 -19 0 -20 7 -20 135 l0 135 -36 0 -35 0 3 -144z"/>
<path d="M983 345 c-38 -16 -40 -25 -13 -50 16 -14 23 -16 32 -7 18 18 56 14
67 -7 9 -17 6 -19 -39 -23 -62 -6 -90 -29 -90 -75 0 -57 26 -73 120 -72 l80 1
0 94 c0 53 -5 104 -10 114 -10 18 -66 40 -100 40 -8 -1 -30 -7 -47 -15z"/>
<path d="M1755 353 c-74 -18 -99 -160 -39 -220 34 -34 111 -33 148 3 23 23 26
35 26 91 0 77 -11 100 -55 119 -35 14 -45 15 -80 7z"/>
<path d="M2167 353 c-4 -3 -27 -5 -52 -5 l-45 2 0 -165 0 -165 30 0 c29 0 30
1 30 48 l0 47 44 -3 c79 -7 86 3 86 119 l0 100 -35 15 c-38 16 -49 17 -58 7z"/>
<path d="M1472 268 c17 -46 36 -99 43 -118 9 -28 18 -36 41 -38 28 -3 30 0 68
105 21 59 41 114 44 121 3 10 -5 13 -33 10 -37 -3 -38 -4 -57 -68 l-21 -65
-20 68 -20 67 -38 0 -38 0 31 -82z"/>
<path d="M1940 230 l0 -120 35 0 35 0 0 120 0 120 -35 0 -35 0 0 -120z"/>
</g>
</svg>
