<svg width="28" height="32" viewBox="0 0 28 32" fill="none" xmlns="http://www.w3.org/2000/svg">
<g clip-path="url(#clip0)">
<path d="M6.26874 28H0.4625V9.30625H6.26874V28ZM3.3625 6.75625C1.50625 6.75625 0 5.21875 0 3.3625C0 1.50625 1.50625 0 3.3625 0C5.21874 0 6.72499 1.50625 6.72499 3.3625C6.72499 5.21875 5.21874 6.75625 3.3625 6.75625ZM28 28H22.2062V18.9C22.2062 16.7312 22.1625 13.95 19.1875 13.95C16.1687 13.95 15.7062 16.3062 15.7062 18.7437V28H9.90624V9.30625H15.475V11.8562H15.5562C16.3312 10.3875 18.225 8.8375 21.05 8.8375C26.925 8.8375 28.0062 12.7063 28.0062 17.7313V28H28Z" fill="white"/>
</g>
<defs>
<clipPath id="clip0">
<rect width="28" height="32" fill="white"/>
</clipPath>
</defs>
</svg>
