<svg width="32" height="32" viewBox="0 0 32 32" fill="none" xmlns="http://www.w3.org/2000/svg">
<path d="M28.7106 9.4825C28.7309 9.76675 28.7309 10.0511 28.7309 10.3353C28.7309 19.0053 22.132 28.9952 10.0711 28.9952C6.35531 28.9952 2.90356 27.919 0 26.0511C0.527937 26.1119 1.0355 26.1322 1.58375 26.1322C4.64969 26.1322 7.47206 25.0967 9.72587 23.3302C6.84262 23.2693 4.42637 21.381 3.59387 18.782C4 18.8429 4.40606 18.8835 4.8325 18.8835C5.42131 18.8835 6.01019 18.8022 6.55837 18.6602C3.55331 18.051 1.29944 15.4114 1.29944 12.2236V12.1424C2.1725 12.6297 3.18781 12.9343 4.26387 12.9749C2.49737 11.7972 1.34006 9.78706 1.34006 7.51293C1.34006 6.29468 1.66487 5.17793 2.23344 4.20331C5.46187 8.183 10.3147 10.7819 15.7562 11.0662C15.6547 10.5789 15.5938 10.0714 15.5938 9.56375C15.5938 5.9495 18.5177 3.00537 22.1522 3.00537C24.0405 3.00537 25.7461 3.79725 26.9441 5.07643C28.4262 4.79218 29.8476 4.24393 31.1065 3.49268C30.6191 5.01556 29.5836 6.29475 28.2232 7.10687C29.5431 6.96481 30.8222 6.59925 31.9999 6.09168C31.1066 7.39112 29.9898 8.54843 28.7106 9.4825Z" fill="white"/>
</svg>
