<?xml version="1.0" standalone="no"?>
<!DOCTYPE svg PUBLIC "-//W3C//DTD SVG 20010904//EN"
 "http://www.w3.org/TR/2001/REC-SVG-20010904/DTD/svg10.dtd">
<svg version="1.0" xmlns="http://www.w3.org/2000/svg"
 width="700.000000pt" height="700.000000pt" viewBox="0 0 700.000000 700.000000"
 preserveAspectRatio="xMidYMid meet">
<metadata>
Created by potrace 1.11, written by Peter Selinger 2001-2013
</metadata>
<g transform="translate(0.000000,700.000000) scale(0.100000,-0.100000)"
fill="#000000" stroke="none">
<path d="M3215 6989 c-1004 -86 -1899 -579 -2513 -1387 -373 -489 -613 -1101
-684 -1737 -17 -154 -17 -585 0 -730 118 -999 599 -1842 1394 -2442 424 -320
969 -554 1498 -642 229 -38 322 -45 590 -45 402 0 720 48 1077 164 707 229
1338 692 1771 1297 349 488 560 1044 634 1668 16 139 16 595 0 730 -46 379
-128 692 -268 1020 -343 801 -1002 1466 -1803 1819 -526 231 -1132 333 -1696
285z m630 -1134 c253 -39 476 -109 701 -220 1001 -490 1526 -1604 1268 -2690
-85 -356 -267 -712 -506 -990 -97 -112 -219 -235 -235 -235 -4 0 -203 195
-441 433 l-432 432 57 45 c116 93 250 274 314 429 106 254 117 556 30 813
-167 494 -625 807 -1145 785 -573 -24 -1030 -452 -1097 -1027 -41 -355 93
-710 363 -966 l86 -81 -438 -438 -438 -438 -87 84 c-316 303 -556 723 -659
1154 -39 168 -56 293 -63 475 -27 746 308 1474 892 1940 278 221 636 392 975
464 100 21 176 33 330 50 75 9 430 -4 525 -19z"/>
</g>
</svg>
