<?xml version="1.0" standalone="no"?>
<!DOCTYPE svg PUBLIC "-//W3C//DTD SVG 20010904//EN"
 "http://www.w3.org/TR/2001/REC-SVG-20010904/DTD/svg10.dtd">
<svg version="1.0" xmlns="http://www.w3.org/2000/svg"
 width="700.000000pt" height="700.000000pt" viewBox="0 0 700.000000 700.000000"
 preserveAspectRatio="xMidYMid meet">
<metadata>
Created by potrace 1.11, written by Peter Selinger 2001-2013
</metadata>
<g transform="translate(0.000000,700.000000) scale(0.100000,-0.100000)"
fill="#000000" stroke="none">
<path d="M435 6990 c-215 -44 -386 -218 -426 -435 -6 -31 -8 -1247 -7 -3090
l3 -3040 23 -59 c32 -85 65 -138 126 -200 66 -68 130 -109 215 -138 l66 -23
3065 0 3065 0 66 23 c161 55 286 180 341 341 l23 66 0 3065 0 3065 -23 66
c-29 85 -70 149 -138 215 -62 61 -115 94 -200 126 l-59 23 -3050 1 c-1677 1
-3068 -2 -3090 -6z m4518 -1661 c593 -120 1034 -584 1118 -1177 15 -107 6
-371 -16 -472 -105 -478 -448 -866 -908 -1029 -161 -56 -272 -74 -462 -74
-190 0 -301 17 -462 74 -211 74 -366 172 -529 334 -144 144 -240 287 -318 478
l-15 37 -275 0 -276 0 0 -930 0 -930 -465 0 -465 0 0 930 0 930 -470 0 -470 0
0 465 0 465 1211 0 1210 0 11 33 c25 72 122 247 182 327 235 313 588 515 982
560 112 13 298 4 417 -21z"/>
<path d="M4545 4884 c-11 -2 -50 -11 -87 -20 -347 -79 -627 -373 -693 -729
-22 -116 -16 -296 14 -410 82 -310 346 -573 658 -656 112 -30 313 -37 424 -14
156 31 295 97 420 198 l61 50 -164 164 -165 165 -67 -46 c-76 -52 -140 -74
-241 -83 -287 -24 -534 247 -487 534 57 344 452 505 736 302 l58 -41 161 158
c89 88 162 163 162 167 0 18 -157 131 -240 172 -139 68 -215 86 -385 90 -80 2
-154 2 -165 -1z"/>
</g>
</svg>
