<svg width="194" height="69" viewBox="0 0 194 69" fill="none" xmlns="http://www.w3.org/2000/svg">
<path fill-rule="evenodd" clip-rule="evenodd" d="M59.7964 39.6815C61.5868 39.6815 63.2887 38.338 63.8268 37.4424V34.5766C63.5577 34.3978 62.3037 33.8606 60.692 33.8606C58.5423 33.8606 57.0648 34.9798 57.0648 36.8157C57.0648 38.4274 58.14 39.6815 59.7964 39.6815ZM60.3332 31.0844C62.2139 31.0844 63.8711 31.6216 63.8711 31.6216C63.915 28.8006 63.3778 27.6815 61.094 27.6815C59.0345 27.6815 57.0197 28.2187 56.0794 28.4869C55.5421 28.621 55.2284 28.2634 55.0943 27.7709L54.7359 26.1137C54.6018 25.5318 54.9147 25.218 55.3178 25.0839C55.6315 24.949 58.1835 24.0542 61.4979 24.0542C67.2293 24.0542 67.7666 27.5465 67.7666 32.0247V41.5614C67.7666 42.01 67.3626 42.4132 66.9156 42.4132H65.6616C65.2584 42.4132 65.0796 42.2335 64.9008 41.7857L64.453 40.5772C63.4672 41.5175 61.7214 42.8602 58.9451 42.8602C55.5868 42.8602 53.1689 40.5772 53.1689 36.8605C53.1689 33.5917 55.7656 31.0844 60.3332 31.0844Z" fill="#203476"/>
<path fill-rule="evenodd" clip-rule="evenodd" d="M81.4669 24.054C84.1985 24.054 86.3027 25.1731 87.9599 27.2326C88.2727 27.6365 88.1833 28.1737 87.7802 28.4866L86.3027 29.8301C85.7654 30.3226 85.4517 29.965 85.0941 29.6513C84.2879 28.7557 82.9891 27.9494 81.5116 27.9494C78.6012 27.9494 76.3174 30.4128 76.3174 33.4574C76.3174 36.5466 78.5565 39.01 81.4669 39.01C83.7507 39.01 84.691 37.8453 85.6314 36.9505C86.0345 36.5466 86.4368 36.5466 86.8399 36.8603L88.0492 37.8453C88.4971 38.2037 88.6759 38.6516 88.363 39.0994C86.9293 41.3832 84.5122 42.8607 81.4222 42.8607C76.4068 42.8607 72.0635 38.8751 72.0635 33.5021C72.0635 28.2184 76.497 24.054 81.4669 24.054Z" fill="#203476"/>
<path fill-rule="evenodd" clip-rule="evenodd" d="M92.8408 25.3527C92.8408 24.9049 93.2439 24.5018 93.6909 24.5018H94.945C95.3489 24.5018 95.5724 24.7261 95.7065 25.039L96.1991 26.5621C96.6022 26.1581 98.6617 24.054 102.11 24.054C104.707 24.054 106.587 25.0837 107.886 26.9197C108.379 26.4272 110.975 24.054 114.378 24.054C119.842 24.054 121.767 27.9047 121.767 32.5617V41.562C121.767 42.0098 121.409 42.4129 120.916 42.4129H118.409C117.916 42.4129 117.558 42.0098 117.558 41.562V32.3829C117.558 29.5611 116.26 27.9494 113.841 27.9494C111.11 27.9494 109.543 29.8756 109.229 30.1438C109.319 30.5469 109.364 31.397 109.364 32.2935V41.562C109.364 42.0098 108.961 42.4129 108.513 42.4129H106.14C105.647 42.4129 105.289 42.0098 105.289 41.562V32.3829C105.289 29.5164 103.99 27.9494 101.483 27.9494C98.7966 27.9494 97.2735 30.0544 97.05 30.6363V41.562C97.05 42.0098 96.6469 42.4129 96.1991 42.4129H93.6909C93.2439 42.4129 92.8408 42.0098 92.8408 41.562V25.3527Z" fill="#203476"/>
<path fill-rule="evenodd" clip-rule="evenodd" d="M139.095 31.487C138.961 29.3381 137.17 27.5022 134.976 27.5022C132.558 27.5022 130.677 29.2479 130.408 31.487H139.095ZM135.021 24.0537C139.677 24.0537 143.26 27.5469 143.26 32.338C143.26 32.6509 143.215 33.2336 143.17 33.5465C143.126 33.9952 142.767 34.308 142.364 34.308H130.184C130.319 36.7259 132.423 39.0991 135.334 39.0991C136.946 39.0991 138.424 38.3831 139.32 37.8004C139.857 37.4875 140.171 37.3079 140.528 37.7557L141.782 39.4576C142.096 39.816 142.23 40.1744 141.693 40.6214C140.394 41.7414 138.066 42.8605 135.065 42.8605C129.647 42.8605 126.065 38.6066 126.065 33.4571C126.065 28.397 129.647 24.0537 135.021 24.0537Z" fill="#203476"/>
<path fill-rule="evenodd" clip-rule="evenodd" d="M165.467 24.054C168.198 24.054 170.303 25.1731 171.96 27.2326C172.273 27.6365 172.183 28.1737 171.78 28.4866L170.303 29.8301C169.765 30.3226 169.452 29.965 169.094 29.6513C168.288 28.7557 166.989 27.9494 165.512 27.9494C162.601 27.9494 160.317 30.4128 160.317 33.4574C160.317 36.5466 162.556 39.01 165.467 39.01C167.751 39.01 168.691 37.8453 169.631 36.9505C170.034 36.5466 170.437 36.5466 170.84 36.8603L172.049 37.8453C172.497 38.2037 172.676 38.6516 172.363 39.0994C170.929 41.3832 168.512 42.8607 165.422 42.8607C160.407 42.8607 156.063 38.8751 156.063 33.5021C156.063 28.2184 160.497 24.054 165.467 24.054Z" fill="#203476"/>
<path fill-rule="evenodd" clip-rule="evenodd" d="M184.541 39.0097C187.363 39.0097 189.601 36.5016 189.601 33.4124C189.601 30.4126 187.363 27.9492 184.541 27.9492C181.72 27.9492 179.481 30.4126 179.481 33.4124C179.481 36.5016 181.72 39.0097 184.541 39.0097ZM184.541 24.0537C189.556 24.0537 193.587 28.3531 193.587 33.4124C193.587 38.5619 189.556 42.8605 184.541 42.8605C179.526 42.8605 175.496 38.5619 175.496 33.4124C175.496 28.3531 179.526 24.0537 184.541 24.0537Z" fill="#203476"/>
<path fill-rule="evenodd" clip-rule="evenodd" d="M17.2676 33.4569C14.6726 33.4263 12.5452 31.299 12.5146 28.7023C12.4848 26.1072 14.565 24.0279 17.16 24.0569C19.7559 24.0858 21.884 26.2148 21.9138 28.8107C21.9445 31.4074 19.8643 33.4867 17.2676 33.4569ZM27.7972 43.1434C27.7972 43.1434 31.9244 13.4706 18.2613 2.35867L17.5222 0.328996C17.3649 -0.102269 16.7581 -0.112203 16.5876 0.314924L15.783 2.32473C2.36249 13.1213 7.07826 42.9058 7.07826 42.9058C-3.29693 51.0593 -0.773078 48.004 5.14792 62.384C6.27616 65.1296 8.25451 64.4823 9.14933 62.5007C10.0433 60.5215 12.0184 56.1492 12.0184 56.1492H12.9562L16.581 67.7305C16.9063 68.771 18.3789 68.771 18.705 67.7305L22.329 56.1492H23.1899C23.1899 56.1492 25.3338 60.697 26.2741 62.6985C27.2144 64.7009 29.2069 65.3929 30.2739 62.6728C35.8654 48.4254 38.3619 51.5369 27.7972 43.1434Z" fill="#203476"/>
</svg>
